PathFileType	4	(X/Y/Z)	Patient4_TMGait_0pt3_01_right_26.trc.trc
DataRate	CameraRate	NumFrames	NumMarkers	Units	OrigDataRate	OrigDataStartFrame	OrigNumFrames
50.000000000000	50.000000000000	5	33	mm	50.000000000000	18	       141
Frame#	Time	Sacral			L.Shoulder			Chest			R.Shoulder			Neck			R.ASIS			L.ASIS			R.Thigh.Superior			R.Thigh.Lateral			R.Thigh.Inferior			R.Patella			L.Thigh.Superior			L.Thigh.Lateral			L.Thigh.Inferior			L.Patella			L.Shank.Superior			L.Shank.Lateral			L.Shank.Inferior			R.Shank.Superior			R.Shank.Lateral			R.Shank.Inferior			R.Heel			R.Midfoot.Superior			R.Midfoot.Lateral			R.Toe			L.Heel			L.Midfoot.Lateral			L.Midfoot.Superior			L.Toe			L.Elbow			L.Wrist			R.Elbow			R.Wrist			
		X1	Y1	Z1	X2	Y2	Z2	X3	Y3	Z3	X4	Y4	Z4	X5	Y5	Z5	X6	Y6	Z6	X7	Y7	Z7	X8	Y8	Z8	X9	Y9	Z9	X10	Y10	Z10	X11	Y11	Z11	X12	Y12	Z12	X13	Y13	Z13	X14	Y14	Z14	X15	Y15	Z15	X16	Y16	Z16	X17	Y17	Z17	X18	Y18	Z18	X19	Y19	Z19	X20	Y20	Z20	X21	Y21	Z21	X22	Y22	Z22	X23	Y23	Z23	X24	Y24	Z24	X25	Y25	Z25	X26	Y26	Z26	X27	Y27	Z27	X28	Y28	Z28	X29	Y29	Z29	X30	Y30	Z30	X31	Y31	Z31	X32	Y32	Z32	X33	Y33	Z33	

18	48.230000000000	684.067947436494	1008.576478362805	414.466218864487	925.135024354614	1436.103568255143	281.455741712871	977.456985963167	1361.192305446368	462.012075088781	852.979392769536	1437.601476337567	608.388242116435	868.482301339318	1495.257360617275	432.683267297262	888.819372690485	948.559006713713	575.713835965811	923.735302968534	957.697799418602	302.960844648260	965.105072336815	772.446467238763	551.921273833598	914.862920851995	651.558575777856	618.953896982209	1005.042804672132	609.605867878978	544.299914408123	1032.044252505888	518.212170771198	566.653285691766	942.189458386039	733.656068388773	340.307559463934	847.379499868435	623.252715861718	275.285164378731	914.484662054489	541.278846527190	350.661295169838	905.881062053590	471.674088886091	361.516466589985	868.829753600385	402.547495539923	353.155217353490	768.588656003605	298.285702655282	300.398688004741	797.086704025064	184.809998231510	378.336082662433	996.189524851045	430.868210346779	576.866237471445	916.336628810574	334.636115131825	639.809981298908	965.720110718173	234.493678372728	593.323577465130	836.346336230987	66.153945860903	566.538654848995	1005.014097904768	117.336551552054	608.645548455774	918.240732712997	53.109844624154	641.651425127025	1123.135527753945	67.701455153034	638.350351182878	651.904296322239	38.946558814387	420.388330248684	726.124576578035	35.608856227039	340.190971590255	810.696510168522	94.724728020432	367.761253239646	938.465455005242	40.244351561934	339.045006930255	1033.630739253367	1127.747036520754	125.736461628488	1274.298974909510	1032.298016054882	161.731701610485	667.362141058115	1137.477194796739	680.395936996283	609.230676734154	885.066714462114	708.280332318185	
19	48.250000000000	683.875682664741	1008.429148388381	415.336617928865	927.263781484012	1435.687215165010	285.599019784113	977.512079712709	1360.345610948291	466.606820261324	851.653827041416	1437.149692664784	611.644574480116	869.085634991726	1494.772310300260	436.268866986294	886.807061602733	947.727304842179	578.877045450123	924.403935458984	957.225879602815	306.212995614523	961.215741289653	769.920226218980	556.348867852513	908.103539118243	649.503124559502	622.016109967236	998.891313251727	607.255058966001	548.362490707084	1025.767008554731	518.830795658543	569.307019979399	939.642013476705	732.572599123878	343.035389387125	843.804340470009	623.538418271783	276.297874931229	908.947834311261	540.515784643728	351.785334458288	899.179562730530	471.259542323079	362.305342599701	862.573821206767	402.507910671352	353.608313688029	762.442820126371	298.295905729567	300.526976615224	790.857066470778	184.745789589677	378.456898894538	995.270509250361	430.786319526115	579.288781818552	921.617531039296	329.339490209014	642.631501457732	977.138904979918	232.218848678732	595.588675204824	857.432130824520	56.838616267911	569.457569370548	1024.248612994385	116.182797309964	609.980506471864	940.941290778072	47.284245626476	643.638421858601	1145.637008581673	72.001359552816	638.136142706926	645.832132312860	38.808154085195	420.351609515692	720.023868850304	35.520712795031	340.149289244246	804.556636535096	94.670911101279	367.793822233719	932.365631396567	40.247886927583	339.109366710942	1041.318900652949	1130.806399301052	129.226781810837	1285.596477658941	1046.386903021360	167.457005286351	663.188702137533	1139.002492312991	681.616449447032	605.069303552919	886.553572909194	709.888697263591	
20	48.270000000000	684.028323030695	1007.716012456678	416.786565829980	929.001151562238	1434.883728522117	289.996163407941	977.634070703130	1359.166751247222	471.330163279727	850.661188203507	1436.230444786682	615.315002185055	869.631371312990	1493.884291001113	440.232470902423	885.340084324462	946.359730287235	582.179115080223	925.282491337534	956.432406172236	309.611233363453	957.903261727677	766.834381546309	560.913018129147	901.744399339403	646.864769943296	625.002190131626	993.261403436303	604.421359800998	552.406819016814	1019.609656663225	518.577160297030	571.898604708298	937.693911939404	731.326510791444	345.833083833132	840.860727796790	623.578858763900	277.528094610314	904.162792853952	539.578493872032	353.046773746583	893.296663239116	470.607397423283	363.239387172318	856.957173963503	402.201031389084	354.238831850173	756.703778734726	298.252325247825	300.794120212978	784.842234153539	184.548505546309	378.648413809604	993.803482769962	430.021676565780	581.636226446590	925.411464304149	324.383329977199	644.962045754970	986.133510020782	230.101529317056	597.509297087077	874.743624035897	49.719938319640	571.587691948299	1039.868342303541	115.124191590816	610.959963888305	959.325713298037	42.889399022321	645.080559138459	1163.559392596668	75.095500076977	637.903831363910	639.757368873492	38.633163484963	420.328047081342	713.929809625221	35.416092489152	340.118421411007	798.415215123610	94.612188653289	367.851872609155	926.271971258497	40.241756964809	339.168627920657	1048.425804574067	1133.286804681506	133.212306840749	1295.577278509923	1059.095880275637	173.152516033456	660.755207525054	1139.108095307771	683.470315754637	604.014359633404	886.235449316211	711.977005057011	
21	48.290000000000	684.574572243387	1006.548844855994	418.834902200270	930.354574264206	1433.826450633004	294.652643605753	977.818659692826	1357.803834489766	476.205896386233	849.956568186965	1434.967864268673	619.411613458916	870.083079063802	1492.708857245844	444.586790761715	884.487108325031	944.610416845870	585.642850482029	926.433420648916	955.431579763925	313.188075239217	955.394884738707	763.484188661240	565.484314899738	896.180150400696	643.875313000146	627.809824918988	988.517539665572	601.395426877046	556.291816858333	1013.985896514117	517.611528283073	574.333611825933	936.370880883775	729.950017346480	348.713897588920	838.508453942978	623.430532015792	279.029476342645	900.082748081756	538.502913629778	354.500720438696	888.190630224921	469.753349306033	364.377573602294	851.927546710984	401.679983448764	355.086709908434	751.323822672102	298.204183171652	301.236754147919	779.024015247939	184.255337558816	378.927001829485	992.051630619043	428.661347498057	583.828592848840	927.762460366660	319.863312239422	646.756859675073	992.603463900999	228.051571826767	599.017025615912	887.766945488890	44.671863625662	572.894283966955	1051.564197679515	113.961762918923	611.541234248843	972.921130188306	39.769562764541	645.982960037402	1176.645283016619	76.654729513729	637.681266519406	633.678885544186	38.431411209461	420.314622826179	707.846514514907	35.298968696290	340.102488044331	792.279927357244	94.560030483775	367.931592864388	920.190940648017	40.227639435300	339.219767996154	1054.828950439718	1135.248713901266	137.660271699466	1304.236879162988	1070.372091364739	178.805161231250	660.012737051268	1137.896824742614	685.972612876858	605.810487429010	884.293870656600	714.575260406252	
22	48.310000000000	685.537178506068	1005.071159168515	421.479071144497	931.366398278273	1432.660199878112	299.570922921460	978.072056290990	1356.406289769361	481.256486596625	849.501931256544	1433.503690420997	623.929662475781	870.425503788167	1491.376212836348	449.330800314441	884.286176388906	942.658851775765	589.296838339912	927.892338322873	954.346821737128	316.976820968391	953.866895426000	760.164975149348	569.946163641395	891.751697721674	640.784954960047	630.385115532237	984.953919869931	598.453458603831	559.914155811833	1009.255285576248	516.124054718775	576.547873016607	935.652007773107	728.487156857627	351.694333769262	836.676613701777	623.161519336492	280.845180093501	896.636993771048	537.337704590156	356.189909218717	883.797408270675	468.742837946497	365.759591018738	847.416272083973	401.011784109712	356.176031100621	746.243558988017	298.210608605502	301.884161720062	773.380346655078	183.914703279072	379.301851923430	990.291094029217	426.832277044174	585.807675197996	928.853937411996	315.855511056433	648.051844120013	996.635929994088	226.002432684876	600.083050991863	896.327852636177	41.443270806668	573.439356714610	1059.305314601830	112.567088899366	611.719099593442	981.634594798624	37.718383114584	646.404253590347	1184.973371665078	76.559600848432	637.462832191320	627.596511340753	38.228683923581	420.306382303238	701.778478457961	35.179591143358	340.105223583866	786.163322745328	94.527151742119	368.025797492613	914.129620143394	40.205916165472	339.259493829654	1060.436774305849	1136.775892199618	142.511622798492	1311.595257594698	1080.214023474329	184.403511729064	660.870461970707	1135.543208327628	689.120110824083	610.154381431315	881.002173029145	717.717703215375	
